PathFileType	4	(X/Y/Z)	C:/Users/opensim2020/Desktop/walking_exp_matlab/subject03_walking12_straight_01.trc	
DataRate	CameraRate	NumFrames	NumMarkers	Units	OrigDataRate	OrigDataStartFrame	OrigNumFrames	
100.00	100.00	4	48	mm	100.00	739	211	
Frame#	Time	LFHD			RFHD			LBHD			RBHD			C7			T10			CLAV			STRN			RBAK			LSHO			LUPA			LELB			LFRM			LWRA			LWRB			LFIN			RSHO			RUPA			RELB			RFRM			RWRA			RWRB			RFIN			LASI			RASI			LPSI			RPSI			LTHI			LKNE			LTIB			LANK			LHEE			LTOE			RTHI			RKNE			RTIB			RANK			RHEE			RTOE			*39			*40			*41			*42			*43			*44			*45			*46			*47			
		X1	Y1	Z1	X2	Y2	Z2	X3	Y3	Z3	X4	Y4	Z4	X5	Y5	Z5	X6	Y6	Z6	X7	Y7	Z7	X8	Y8	Z8	X9	Y9	Z9	X10	Y10	Z10	X11	Y11	Z11	X12	Y12	Z12	X13	Y13	Z13	X14	Y14	Z14	X15	Y15	Z15	X16	Y16	Z16	X17	Y17	Z17	X18	Y18	Z18	X19	Y19	Z19	X20	Y20	Z20	X21	Y21	Z21	X22	Y22	Z22	X23	Y23	Z23	X24	Y24	Z24	X25	Y25	Z25	X26	Y26	Z26	X27	Y27	Z27	X28	Y28	Z28	X29	Y29	Z29	X30	Y30	Z30	X31	Y31	Z31	X32	Y32	Z32	X33	Y33	Z33	X34	Y34	Z34	X35	Y35	Z35	X36	Y36	Z36	X37	Y37	Z37	X38	Y38	Z38	X39	Y39	Z39	X40	Y40	Z40	X41	Y41	Z41	X42	Y42	Z42	X43	Y43	Z43	X44	Y44	Z44	X45	Y45	Z45	X46	Y46	Z46	X47	Y47	Z47	X48	Y48	Z48	

185	1.840	-1049.46753	925.72888	1622.33691	-921.45514	890.18250	1621.85962	-1080.29199	802.37708	1577.07678	-953.24921	772.47089	1576.21216	-1028.91907	761.43915	1412.21680	-1029.42981	739.71552	1098.45081	-1010.48846	883.92499	1340.55505	-1013.89459	936.14282	1177.84387	-943.92120	703.04724	1231.92004	-1170.26111	859.28510	1378.60986	-1247.99609	874.66364	1184.26196	-1262.46167	892.84155	1062.74646	-1259.59558	927.46802	936.57690	-1230.57385	945.30719	818.52832	-1285.72021	937.45862	825.92035	-1277.68567	956.94086	744.15240	-858.25482	812.31287	1358.92957	-791.80554	803.79340	1134.50732	-780.92200	818.04248	1021.85889	-780.78821	831.76599	885.43433	-815.38989	863.88910	790.85809	-775.26263	828.28101	784.79218	-783.68164	854.41504	714.82813	-1141.91150	909.82361	944.76288	-904.67303	900.18237	933.56738	-1096.35632	745.91693	966.88965	-948.02332	741.91199	961.67499	-1187.73145	841.61346	642.84320	-1147.09863	832.40778	466.85760	-1152.55945	760.47974	280.24432	-1113.01160	721.39178	72.02948	-1077.52026	677.04144	40.14083	-1082.17163	870.92438	29.65450	-869.94617	920.07312	642.26587	-901.21179	1000.42200	481.86932	-909.52283	911.46680	310.67465	-963.18506	815.10706	120.88513	-1019.47357	765.69696	103.48241	-968.94598	931.29749	45.03529	-1020.02350	831.51508	1679.15588																								 
186	1.850	-1047.41516	938.79950	1621.61658	-919.46857	902.91595	1620.57007	-1078.75562	815.51538	1576.50989	-951.85181	785.29230	1575.08191	-1027.88953	774.25488	1411.43640	-1028.72913	752.41357	1097.64648	-1009.55573	896.75873	1339.63452	-1013.34564	948.87640	1176.90649	-943.60345	715.66022	1230.87378	-1169.17932	871.98132	1378.11365	-1247.52551	889.86273	1184.56470	-1262.06604	911.06470	1063.53809	-1258.49243	950.20160	938.86981	-1228.16064	972.41455	821.87219	-1283.20056	963.92450	828.19531	-1274.49084	987.53143	747.93439	-857.31500	824.84448	1357.69055	-791.33447	813.36230	1133.26331	-780.65302	825.81445	1020.41772	-781.06805	837.39862	883.61218	-815.42670	868.30157	788.83447	-775.65924	832.28943	783.18585	-783.76294	857.46759	712.93573	-1141.88110	921.60468	943.77777	-904.51971	913.47046	932.89197	-1095.04480	757.95233	966.12811	-947.04077	754.74109	960.43573	-1186.42310	849.06061	642.67255	-1146.87292	836.14209	466.61206	-1151.73193	762.32123	280.90994	-1112.23999	721.68213	72.80830	-1076.27637	677.33234	41.06270	-1082.43103	871.23242	29.72134	-869.33826	936.37213	642.61505	-901.70386	1017.90143	483.27460	-909.90479	938.07349	306.77304	-964.13367	854.84045	110.78282	-1021.01459	806.72357	90.11521	-968.88556	975.60052	42.67689	-1018.02759	844.55658	1678.34888																								 
187	1.860	-1045.34790	951.82855	1620.65576	-917.47192	915.62170	1619.10266	-1077.16455	828.62000	1575.68188	-950.30127	798.01251	1573.71619	-1026.47864	787.23358	1410.19141	-1027.88721	765.16595	1096.52344	-1008.52100	909.60016	1338.49939	-1012.78113	961.63348	1175.70496	-943.14642	728.38654	1229.57898	-1168.04907	884.61487	1377.37598	-1247.01978	905.13904	1184.70398	-1261.88611	929.15076	1064.26929	-1257.16785	972.66730	941.09833	-1225.63745	999.51849	825.51129	-1280.69067	990.55762	830.80103	-1270.96423	1017.51801	751.76349	-856.30371	837.41608	1356.15430	-790.77545	823.16516	1131.84314	-780.30762	833.90576	1018.82269	-781.03583	843.37616	881.83655	-815.55048	872.96631	786.70782	-775.99152	836.73297	781.43982	-784.16846	860.92450	710.93829	-1141.81824	933.30170	942.58948	-904.36353	926.88562	931.99841	-1093.68091	769.98047	965.10358	-945.84387	767.46368	959.07501	-1185.28479	856.49731	642.25531	-1146.42761	840.32709	466.26016	-1150.99475	764.30438	281.58533	-1111.46582	722.00403	73.60235	-1075.25940	677.58051	42.22931	-1082.55969	871.45563	29.60967	-868.60779	952.41437	642.86835	-901.98285	1034.37048	484.04810	-910.21405	964.25739	302.92841	-965.09119	895.28754	101.17828	-1022.36652	848.69421	77.87198	-968.72357	1019.94006	40.96349	-1015.90497	857.50079	1677.27490																								 
188	1.870	-1043.24402	964.84869	1619.53259	-915.44092	928.31433	1617.45740	-1075.52612	841.66553	1574.60901	-948.70197	810.82758	1572.17944	-1025.24402	800.15845	1408.92273	-1026.91638	777.90814	1095.10632	-1007.43408	922.54590	1337.15015	-1012.21332	974.47284	1174.29980	-942.58032	741.23248	1227.99084	-1166.72839	897.22723	1376.30054	-1246.37573	920.34845	1184.68408	-1261.48633	947.11761	1064.86206	-1255.83789	995.05652	943.44952	-1223.03662	1026.45447	829.44818	-1278.02112	1016.91754	833.56451	-1267.15100	1047.09937	755.78326	-855.18243	850.10626	1354.41895	-790.13544	833.29340	1130.27917	-779.94348	842.32013	1017.04199	-781.00000	849.74255	879.94006	-815.74249	877.92242	784.49146	-776.39923	841.50989	779.45520	-784.78040	864.64172	708.81848	-1141.67285	945.23492	941.30505	-904.12866	940.46173	930.94513	-1092.33630	782.14172	963.77185	-944.57196	780.68262	957.44604	-1184.22485	864.02087	641.69318	-1145.85156	845.08020	465.74469	-1150.10083	766.75208	282.12689	-1110.55811	722.41827	74.48685	-1074.18347	677.88300	43.34051	-1082.60742	871.67755	29.37332	-867.78540	968.09442	642.69159	-901.97131	1049.92859	484.19684	-910.42981	989.89526	299.07452	-966.02435	936.02686	92.80042	-1023.72742	891.52936	67.05843	-968.43958	1064.17261	39.84864	-1013.82605	870.41986	1676.02136																								 
